<svg version="1.1" xmlns="http://www.w3.org/2000/svg" xmlns:xlink="http://www.w3.org/1999/xlink" width="1044" height="1348"><defs/><g><g transform="translate(10,10) scale(1,1)"><path fill="none" stroke="#000000" d="M 0 0 L 1024 0 L 1024 1328 L 0 1328 L 0 0" stroke-miterlimit="10"/></g><g transform="translate(10,10) scale(1,1)"><path fill="#fefe6f" stroke="none" d="M 0 0 L 0 22 L 639.63818359375 22 L 650.63818359375 11 L 650.63818359375 0 L 0 0"/></g><g transform="translate(10,10) scale(1,1)"><path fill="none" stroke="#000000" d="M 0 0 L 0 22 L 639.63818359375 22 L 650.63818359375 11 L 650.63818359375 0 L 0 0 L 0 0" stroke-miterlimit="10"/></g><g transform="translate(10,10) scale(1,1)"><g><path fill="none" stroke="none"/><text fill="#000000" stroke="none" font-family="Arial" font-size="13px" font-style="normal" font-weight="normal" text-decoration="none" x="70.97900390625" y="17.5">A Mobile Application to Identify Missing People using Face Detection and Recognition Techniques</text></g></g><g transform="translate(10,10) scale(1,1)"><g><path fill="none" stroke="none"/><text fill="#000000" stroke="none" font-family="Arial" font-size="13px" font-style="normal" font-weight="bold" text-decoration="none" x="5" y="17.5">interaction</text></g></g><g transform="translate(10,10) scale(1,1)"><rect fill="#C0C0C0" stroke="none" x="175" y="47" width="145.419921875" height="39" opacity="0.2"/></g><g transform="translate(10,10) scale(1,1)"><rect fill="#fefe6f" stroke="none" x="168" y="40" width="145.419921875" height="39"/></g><g transform="translate(10,10) scale(1,1)"><path fill="none" stroke="#000000" d="M 168 40 L 313.419921875 40 L 313.419921875 79 L 168 79 L 168 40 Z Z" stroke-miterlimit="10"/></g><g transform="translate(10,10) scale(1,1)"><g><path fill="none" stroke="none"/><text fill="#000000" stroke="none" font-family="Arial" font-size="13px" font-style="normal" font-weight="bold" text-decoration="none" x="182.175048828125" y="59.5">mobile app interface</text></g></g><g transform="translate(10,10) scale(1,1)"><path fill="none" stroke="#000000" d="M 241.5 80 L 241.5 1200" stroke-miterlimit="10" stroke-dasharray="3"/></g><g transform="translate(10,10) scale(1,1)"><path fill="#fefe6f" stroke="none" d="M 58.13951260653409 47.3 C 58.13951260653409 43.82060576 61.01791432871591 41 64.568603515625 41 C 68.1192927025341 41 70.9976944247159 43.82060576 70.9976944247159 47.3 C 70.9976944247159 50.779394239999995 68.1192927025341 53.6 64.568603515625 53.6 C 61.01791432871591 53.6 58.13951260653409 50.779394239999995 58.13951260653409 47.3 Z"/></g><g transform="translate(10,10) scale(1,1)"><path fill="none" stroke="#000000" d="M 58.13951260653409 47.3 C 58.13951260653409 43.82060576 61.01791432871591 41 64.568603515625 41 C 68.1192927025341 41 70.9976944247159 43.82060576 70.9976944247159 47.3 C 70.9976944247159 50.779394239999995 68.1192927025341 53.6 64.568603515625 53.6 C 61.01791432871591 53.6 58.13951260653409 50.779394239999995 58.13951260653409 47.3 Z" stroke-miterlimit="10"/></g><g transform="translate(10,10) scale(1,1)"><path fill="none" stroke="#000000" d="M 64.568603515625 53.6 L 64.568603515625 66.4" stroke-miterlimit="10"/></g><g transform="translate(10,10) scale(1,1)"><path fill="none" stroke="#000000" d="M 57.761330788352275 58.4 L 71.37587624289773 58.4" stroke-miterlimit="10"/></g><g transform="translate(10,10) scale(1,1)"><path fill="none" stroke="#000000" d="M 64.568603515625 66.4 L 55.11405806107955 79" stroke-miterlimit="10"/></g><g transform="translate(10,10) scale(1,1)"><path fill="none" stroke="#000000" d="M 64.568603515625 66.4 L 74.02314897017045 79" stroke-miterlimit="10"/></g><g transform="translate(10,10) scale(1,1)"><g><path fill="none" stroke="none"/><text fill="#000000" stroke="none" font-family="Arial" font-size="13px" font-style="normal" font-weight="bold" text-decoration="none" x="48.312255859375" y="99.5">: user</text></g></g><g transform="translate(10,10) scale(1,1)"><path fill="none" stroke="#000000" d="M 65.5 105 L 65.5 1200" stroke-miterlimit="10" stroke-dasharray="3"/></g><g transform="translate(10,10) scale(1,1)"><rect fill="#C0C0C0" stroke="none" x="335" y="47" width="71.736328125" height="39" opacity="0.2"/></g><g transform="translate(10,10) scale(1,1)"><rect fill="#fefe6f" stroke="none" x="328" y="40" width="71.736328125" height="39"/></g><g transform="translate(10,10) scale(1,1)"><path fill="none" stroke="#000000" d="M 328 40 L 399.736328125 40 L 399.736328125 79 L 328 79 L 328 40 Z Z" stroke-miterlimit="10"/></g><g transform="translate(10,10) scale(1,1)"><g><path fill="none" stroke="none"/><text fill="#000000" stroke="none" font-family="Arial" font-size="13px" font-style="normal" font-weight="bold" text-decoration="none" x="345.80908203125" y="59.5">server</text></g></g><g transform="translate(10,10) scale(1,1)"><path fill="none" stroke="#000000" d="M 364.5 80 L 364.5 1200" stroke-miterlimit="10" stroke-dasharray="3"/></g><g transform="translate(10,10) scale(1,1)"><rect fill="#C0C0C0" stroke="none" x="415" y="47" width="114.37353515625" height="39" opacity="0.2"/></g><g transform="translate(10,10) scale(1,1)"><rect fill="#fefe6f" stroke="none" x="408" y="40" width="114.37353515625" height="39"/></g><g transform="translate(10,10) scale(1,1)"><path fill="none" stroke="#000000" d="M 408 40 L 522.37353515625 40 L 522.37353515625 79 L 408 79 L 408 40 Z Z" stroke-miterlimit="10"/></g><g transform="translate(10,10) scale(1,1)"><g><path fill="none" stroke="none"/><text fill="#000000" stroke="none" font-family="Arial" font-size="13px" font-style="normal" font-weight="bold" text-decoration="none" x="420.746826171875" y="59.5">face recognizer</text></g></g><g transform="translate(10,10) scale(1,1)"><path fill="none" stroke="#000000" d="M 466.5 80 L 466.5 1200" stroke-miterlimit="10" stroke-dasharray="3"/></g><g transform="translate(10,10) scale(1,1)"><rect fill="#C0C0C0" stroke="none" x="679" y="47" width="99.20263671875" height="39" opacity="0.2"/></g><g transform="translate(10,10) scale(1,1)"><rect fill="#fefe6f" stroke="none" x="672" y="40" width="99.20263671875" height="39"/></g><g transform="translate(10,10) scale(1,1)"><path fill="none" stroke="#000000" d="M 672 40 L 771.20263671875 40 L 771.20263671875 79 L 672 79 L 672 40 Z Z" stroke-miterlimit="10"/></g><g transform="translate(10,10) scale(1,1)"><g><path fill="none" stroke="none"/><text fill="#000000" stroke="none" font-family="Arial" font-size="13px" font-style="normal" font-weight="bold" text-decoration="none" x="684.02001953125" y="59.5">face encoder</text></g></g><g transform="translate(10,10) scale(1,1)"><path fill="none" stroke="#000000" d="M 722.5 80 L 722.5 952" stroke-miterlimit="10" stroke-dasharray="3"/></g><g transform="translate(10,10) scale(1,1)"><rect fill="#C0C0C0" stroke="none" x="863" y="47" width="76.80810546875" height="39" opacity="0.2"/></g><g transform="translate(10,10) scale(1,1)"><rect fill="#fefe6f" stroke="none" x="856" y="40" width="76.80810546875" height="39"/></g><g transform="translate(10,10) scale(1,1)"><path fill="none" stroke="#000000" d="M 856 40 L 932.80810546875 40 L 932.80810546875 79 L 856 79 L 856 40 Z Z" stroke-miterlimit="10"/></g><g transform="translate(10,10) scale(1,1)"><g><path fill="none" stroke="none"/><text fill="#000000" stroke="none" font-family="Arial" font-size="13px" font-style="normal" font-weight="bold" text-decoration="none" x="866.5791015625" y="59.5">Database</text></g></g><g transform="translate(10,10) scale(1,1)"><path fill="none" stroke="#000000" d="M 895.5 80 L 895.5 1200" stroke-miterlimit="10" stroke-dasharray="3"/></g><g transform="translate(10,10) scale(1,1)"><rect fill="#C0C0C0" stroke="none" x="567" y="47" width="104.97900390625" height="39" opacity="0.2"/></g><g transform="translate(10,10) scale(1,1)"><rect fill="#fefe6f" stroke="none" x="560" y="40" width="104.97900390625" height="39"/></g><g transform="translate(10,10) scale(1,1)"><path fill="none" stroke="#000000" d="M 560 40 L 664.97900390625 40 L 664.97900390625 79 L 560 79 L 560 40 Z Z" stroke-miterlimit="10"/></g><g transform="translate(10,10) scale(1,1)"><g><path fill="none" stroke="none"/><text fill="#000000" stroke="none" font-family="Arial" font-size="13px" font-style="normal" font-weight="bold" text-decoration="none" x="571.667724609375" y="59.5">Face Detector</text></g></g><g transform="translate(10,10) scale(1,1)"><path fill="none" stroke="#000000" d="M 613.5 80 L 613.5 960" stroke-miterlimit="10" stroke-dasharray="3"/></g><g transform="translate(10,10) scale(1,1)"><path fill="none" stroke="#000000" d="M 65 129 L 234 129" stroke-miterlimit="10"/></g><g transform="translate(10,10) scale(1,1)"><path fill="#000000" stroke="none" d="M 223.83732514237585 133.209517756016 L 234 129 L 223.83732514237585 124.79048224398402"/></g><g transform="translate(10,10) scale(1,1)"><path fill="none" stroke="#000000" d="M 223.83732514237585 133.209517756016 L 234 129 L 223.83732514237585 124.79048224398402 L 223.83732514237585 133.209517756016" stroke-miterlimit="10"/></g><g transform="translate(10,10) scale(1,1)"><g><path fill="none" stroke="none"/><text fill="#000000" stroke="none" font-family="Arial" font-size="13px" font-style="normal" font-weight="normal" text-decoration="none" x="89.5" y="125.5">1 : application opend</text></g></g><g transform="translate(10,10) scale(1,1)"><rect fill="#fefe6f" stroke="none" x="234" y="129" width="13" height="28"/></g><g transform="translate(10,10) scale(1,1)"><path fill="none" stroke="#000000" d="M 234 129 L 247 129 L 247 157 L 234 157 L 234 129 Z Z" stroke-miterlimit="10"/></g><g transform="translate(10,10) scale(1,1)"><path fill="none" stroke="#000000" d="M 234 149 L 65 149" stroke-miterlimit="10" stroke-dasharray="3"/></g><g transform="translate(10,10) scale(1,1)"><path fill="none" stroke="#000000" d="M 75.16267485762415 144.790482243984 L 65 149 L 75.16267485762415 153.209517756016" stroke-miterlimit="10"/></g><g transform="translate(10,10) scale(1,1)"><g><path fill="none" stroke="none"/><text fill="#000000" stroke="none" font-family="Arial" font-size="13px" font-style="normal" font-weight="normal" text-decoration="none" x="79.5" y="165.5">2 : display main window</text></g></g><g transform="translate(10,10) scale(1,1)"><path fill="none" stroke="#000000" d="M 65 201 L 234 201" stroke-miterlimit="10"/></g><g transform="translate(10,10) scale(1,1)"><path fill="#000000" stroke="none" d="M 223.83732514237585 205.209517756016 L 234 201 L 223.83732514237585 196.790482243984"/></g><g transform="translate(10,10) scale(1,1)"><path fill="none" stroke="#000000" d="M 223.83732514237585 205.209517756016 L 234 201 L 223.83732514237585 196.790482243984 L 223.83732514237585 205.209517756016" stroke-miterlimit="10"/></g><g transform="translate(10,10) scale(1,1)"><g><path fill="none" stroke="none"/><text fill="#000000" stroke="none" font-family="Arial" font-size="13px" font-style="normal" font-weight="normal" text-decoration="none" x="120.33544921875" y="197.5">3 : signup</text></g></g><g transform="translate(10,10) scale(1,1)"><rect fill="#fefe6f" stroke="none" x="234" y="201" width="13" height="55"/></g><g transform="translate(10,10) scale(1,1)"><path fill="none" stroke="#000000" d="M 234 201 L 247 201 L 247 256 L 234 256 L 234 201 Z Z" stroke-miterlimit="10"/></g><g transform="translate(10,10) scale(1,1)"><path fill="none" stroke="#000000" d="M 247 208 L 357 208" stroke-miterlimit="10"/></g><g transform="translate(10,10) scale(1,1)"><path fill="#000000" stroke="none" d="M 346.83732514237585 212.209517756016 L 357 208 L 346.83732514237585 203.790482243984"/></g><g transform="translate(10,10) scale(1,1)"><path fill="none" stroke="#000000" d="M 346.83732514237585 212.209517756016 L 357 208 L 346.83732514237585 203.790482243984 L 346.83732514237585 212.209517756016" stroke-miterlimit="10"/></g><g transform="translate(10,10) scale(1,1)"><g><path fill="none" stroke="none"/><text fill="#000000" stroke="none" font-family="Arial" font-size="13px" font-style="normal" font-weight="normal" text-decoration="none" x="247.5" y="204.5">4 : register request</text></g></g><g transform="translate(10,10) scale(1,1)"><rect fill="#fefe6f" stroke="none" x="357" y="208" width="13" height="48"/></g><g transform="translate(10,10) scale(1,1)"><path fill="none" stroke="#000000" d="M 357 208 L 370 208 L 370 256 L 357 256 L 357 208 Z Z" stroke-miterlimit="10"/></g><g transform="translate(10,10) scale(1,1)"><path fill="none" stroke="#000000" d="M 370 216 L 888 216" stroke-miterlimit="10"/></g><g transform="translate(10,10) scale(1,1)"><path fill="#000000" stroke="none" d="M 877.8373251423759 220.209517756016 L 888 216 L 877.8373251423758 211.790482243984"/></g><g transform="translate(10,10) scale(1,1)"><path fill="none" stroke="#000000" d="M 877.8373251423759 220.209517756016 L 888 216 L 877.8373251423758 211.790482243984 L 877.8373251423759 220.209517756016" stroke-miterlimit="10"/></g><g transform="translate(10,10) scale(1,1)"><g><path fill="none" stroke="none"/><text fill="#000000" stroke="none" font-family="Arial" font-size="13px" font-style="normal" font-weight="normal" text-decoration="none" x="594.194091796875" y="212.5">5 : add user</text></g></g><g transform="translate(10,10) scale(1,1)"><rect fill="#fefe6f" stroke="none" x="888" y="216" width="13" height="28"/></g><g transform="translate(10,10) scale(1,1)"><path fill="none" stroke="#000000" d="M 888 216 L 901 216 L 901 244 L 888 244 L 888 216 Z Z" stroke-miterlimit="10"/></g><g transform="translate(10,10) scale(1,1)"><path fill="none" stroke="#000000" d="M 357 228 L 247 228" stroke-miterlimit="10" stroke-dasharray="3"/></g><g transform="translate(10,10) scale(1,1)"><path fill="none" stroke="#000000" d="M 257.16267485762415 223.790482243984 L 247 228 L 257.16267485762415 232.209517756016" stroke-miterlimit="10"/></g><g transform="translate(10,10) scale(1,1)"><g><path fill="none" stroke="none"/><text fill="#000000" stroke="none" font-family="Arial" font-size="13px" font-style="normal" font-weight="normal" text-decoration="none" x="248.5" y="244.5">6 : operation done</text></g></g><g transform="translate(10,10) scale(1,1)"><path fill="none" stroke="#000000" d="M 888 236 L 370 236" stroke-miterlimit="10" stroke-dasharray="3"/></g><g transform="translate(10,10) scale(1,1)"><path fill="none" stroke="#000000" d="M 380.16267485762415 231.790482243984 L 370 236 L 380.16267485762415 240.209517756016" stroke-miterlimit="10"/></g><g transform="translate(10,10) scale(1,1)"><g><path fill="none" stroke="none"/><text fill="#000000" stroke="none" font-family="Arial" font-size="13px" font-style="normal" font-weight="normal" text-decoration="none" x="605.121337890625" y="252.5">7 : valid</text></g></g><g transform="translate(10,10) scale(1,1)"><path fill="none" stroke="#000000" d="M 65 285 L 234 285" stroke-miterlimit="10"/></g><g transform="translate(10,10) scale(1,1)"><path fill="#000000" stroke="none" d="M 223.83732514237585 289.209517756016 L 234 285 L 223.83732514237585 280.790482243984"/></g><g transform="translate(10,10) scale(1,1)"><path fill="none" stroke="#000000" d="M 223.83732514237585 289.209517756016 L 234 285 L 223.83732514237585 280.790482243984 L 223.83732514237585 289.209517756016" stroke-miterlimit="10"/></g><g transform="translate(10,10) scale(1,1)"><g><path fill="none" stroke="none"/><text fill="#000000" stroke="none" font-family="Arial" font-size="13px" font-style="normal" font-weight="normal" text-decoration="none" x="125.75634765625" y="281.5">8 : login</text></g></g><g transform="translate(10,10) scale(1,1)"><rect fill="#fefe6f" stroke="none" x="234" y="285" width="13" height="107"/></g><g transform="translate(10,10) scale(1,1)"><path fill="none" stroke="#000000" d="M 234 285 L 247 285 L 247 392 L 234 392 L 234 285 Z Z" stroke-miterlimit="10"/></g><g transform="translate(10,10) scale(1,1)"><path fill="none" stroke="#000000" d="M 247 297 L 357 297" stroke-miterlimit="10"/></g><g transform="translate(10,10) scale(1,1)"><path fill="#000000" stroke="none" d="M 346.83732514237585 301.209517756016 L 357 297 L 346.83732514237585 292.790482243984"/></g><g transform="translate(10,10) scale(1,1)"><path fill="none" stroke="#000000" d="M 346.83732514237585 301.209517756016 L 357 297 L 346.83732514237585 292.790482243984 L 346.83732514237585 301.209517756016" stroke-miterlimit="10"/></g><g transform="translate(10,10) scale(1,1)"><g><path fill="none" stroke="none"/><text fill="#000000" stroke="none" font-family="Arial" font-size="13px" font-style="normal" font-weight="normal" text-decoration="none" x="255.5" y="293.5">9 : login request</text></g></g><g transform="translate(10,10) scale(1,1)"><rect fill="#fefe6f" stroke="none" x="357" y="297" width="13" height="71"/></g><g transform="translate(10,10) scale(1,1)"><path fill="none" stroke="#000000" d="M 357 297 L 370 297 L 370 368 L 357 368 L 357 297 Z Z" stroke-miterlimit="10"/></g><g transform="translate(10,10) scale(1,1)"><path fill="none" stroke="#000000" d="M 370 304 L 888 304" stroke-miterlimit="10"/></g><g transform="translate(10,10) scale(1,1)"><path fill="#000000" stroke="none" d="M 877.8373251423759 308.209517756016 L 888 304 L 877.8373251423758 299.790482243984"/></g><g transform="translate(10,10) scale(1,1)"><path fill="none" stroke="#000000" d="M 877.8373251423759 308.209517756016 L 888 304 L 877.8373251423758 299.790482243984 L 877.8373251423759 308.209517756016" stroke-miterlimit="10"/></g><g transform="translate(10,10) scale(1,1)"><g><path fill="none" stroke="none"/><text fill="#000000" stroke="none" font-family="Arial" font-size="13px" font-style="normal" font-weight="normal" text-decoration="none" x="569.5" y="300.5">10 : User verification</text></g></g><g transform="translate(10,10) scale(1,1)"><rect fill="#fefe6f" stroke="none" x="888" y="304" width="13" height="64"/></g><g transform="translate(10,10) scale(1,1)"><path fill="none" stroke="#000000" d="M 888 304 L 901 304 L 901 368 L 888 368 L 888 304 Z Z" stroke-miterlimit="10"/></g><g transform="translate(10,10) scale(1,1)"><path fill="none" stroke="#000000" d="M 234 305 L 65 305" stroke-miterlimit="10" stroke-dasharray="3"/></g><g transform="translate(10,10) scale(1,1)"><path fill="none" stroke="#000000" d="M 75.16267485762415 300.790482243984 L 65 305 L 75.16267485762415 309.209517756016" stroke-miterlimit="10"/></g><g transform="translate(10,10) scale(1,1)"><g><path fill="none" stroke="none"/><text fill="#000000" stroke="none" font-family="Arial" font-size="13px" font-style="normal" font-weight="normal" text-decoration="none" x="102.5" y="321.5">11 : invalid user</text></g></g><g transform="translate(10,10) scale(1,1)"><path fill="none" stroke="#000000" d="M 357 317 L 247 317" stroke-miterlimit="10" stroke-dasharray="3"/></g><g transform="translate(10,10) scale(1,1)"><path fill="none" stroke="#000000" d="M 257.16267485762415 312.790482243984 L 247 317 L 257.16267485762415 321.209517756016" stroke-miterlimit="10"/></g><g transform="translate(10,10) scale(1,1)"><g><path fill="none" stroke="none"/><text fill="#000000" stroke="none" font-family="Arial" font-size="13px" font-style="normal" font-weight="normal" text-decoration="none" x="257.5" y="333.5">12 : login failed</text></g></g><g transform="translate(10,10) scale(1,1)"><path fill="none" stroke="#000000" d="M 888 324 L 370 324" stroke-miterlimit="10" stroke-dasharray="3"/></g><g transform="translate(10,10) scale(1,1)"><path fill="none" stroke="#000000" d="M 380.16267485762415 319.790482243984 L 370 324 L 380.16267485762415 328.209517756016" stroke-miterlimit="10"/></g><g transform="translate(10,10) scale(1,1)"><g><path fill="none" stroke="none"/><text fill="#000000" stroke="none" font-family="Arial" font-size="13px" font-style="normal" font-weight="normal" text-decoration="none" x="545.5" y="340.5">13 [not valid] : user validated</text></g></g><g transform="translate(10,10) scale(1,1)"><path fill="none" stroke="#000000" d="M 888 344 L 370 344" stroke-miterlimit="10" stroke-dasharray="3"/></g><g transform="translate(10,10) scale(1,1)"><path fill="none" stroke="#000000" d="M 380.16267485762415 339.790482243984 L 370 344 L 380.16267485762415 348.209517756016" stroke-miterlimit="10"/></g><g transform="translate(10,10) scale(1,1)"><g><path fill="none" stroke="none"/><text fill="#000000" stroke="none" font-family="Arial" font-size="13px" font-style="normal" font-weight="normal" text-decoration="none" x="556.5" y="360.5">14 [valid] : user validated</text></g></g><g transform="translate(10,10) scale(1,1)"><path fill="none" stroke="#000000" d="M 357 350 L 247 350" stroke-miterlimit="10" stroke-dasharray="3"/></g><g transform="translate(10,10) scale(1,1)"><path fill="none" stroke="#000000" d="M 257.16267485762415 345.790482243984 L 247 350 L 257.16267485762415 354.209517756016" stroke-miterlimit="10"/></g><g transform="translate(10,10) scale(1,1)"><g><path fill="none" stroke="none"/><text fill="#000000" stroke="none" font-family="Arial" font-size="13px" font-style="normal" font-weight="normal" text-decoration="none" x="258.5" y="366.5">15 : login done</text></g></g><g transform="translate(10,10) scale(1,1)"><path fill="none" stroke="#000000" d="M 234 352 L 65 352" stroke-miterlimit="10" stroke-dasharray="3"/></g><g transform="translate(10,10) scale(1,1)"><path fill="none" stroke="#000000" d="M 75.16267485762415 347.790482243984 L 65 352 L 75.16267485762415 356.209517756016" stroke-miterlimit="10"/></g><g transform="translate(10,10) scale(1,1)"><g><path fill="none" stroke="none"/><text fill="#000000" stroke="none" font-family="Arial" font-size="13px" font-style="normal" font-weight="normal" text-decoration="none" x="69.5" y="368.5">16 : display service window</text></g></g><g transform="translate(10,10) scale(1,1)"><path fill="none" stroke="#000000" d="M 65 432 L 234 432" stroke-miterlimit="10"/></g><g transform="translate(10,10) scale(1,1)"><path fill="#000000" stroke="none" d="M 223.83732514237585 436.209517756016 L 234 432 L 223.83732514237585 427.790482243984"/></g><g transform="translate(10,10) scale(1,1)"><path fill="none" stroke="#000000" d="M 223.83732514237585 436.209517756016 L 234 432 L 223.83732514237585 427.790482243984 L 223.83732514237585 436.209517756016" stroke-miterlimit="10"/></g><g transform="translate(10,10) scale(1,1)"><g><path fill="none" stroke="none"/><text fill="#000000" stroke="none" font-family="Arial" font-size="13px" font-style="normal" font-weight="normal" text-decoration="none" x="47.5" y="428.5">17 : select add new missing person</text></g></g><g transform="translate(10,10) scale(1,1)"><rect fill="#fefe6f" stroke="none" x="234" y="432" width="13" height="28"/></g><g transform="translate(10,10) scale(1,1)"><path fill="none" stroke="#000000" d="M 234 432 L 247 432 L 247 460 L 234 460 L 234 432 Z Z" stroke-miterlimit="10"/></g><g transform="translate(10,10) scale(1,1)"><path fill="none" stroke="#000000" d="M 247 440 L 357 440" stroke-miterlimit="10"/></g><g transform="translate(10,10) scale(1,1)"><path fill="#000000" stroke="none" d="M 346.83732514237585 444.209517756016 L 357 440 L 346.83732514237585 435.790482243984"/></g><g transform="translate(10,10) scale(1,1)"><path fill="none" stroke="#000000" d="M 346.83732514237585 444.209517756016 L 357 440 L 346.83732514237585 435.790482243984 L 346.83732514237585 444.209517756016" stroke-miterlimit="10"/></g><g transform="translate(10,10) scale(1,1)"><g><path fill="none" stroke="none"/><text fill="#000000" stroke="none" font-family="Arial" font-size="13px" font-style="normal" font-weight="normal" text-decoration="none" x="263.5" y="420.5">18 : request for add new missing person</text></g></g><g transform="translate(10,10) scale(1,1)"><rect fill="#fefe6f" stroke="none" x="357" y="440" width="13" height="54"/></g><g transform="translate(10,10) scale(1,1)"><path fill="none" stroke="#000000" d="M 357 440 L 370 440 L 370 494 L 357 494 L 357 440 Z Z" stroke-miterlimit="10"/></g><g transform="translate(10,10) scale(1,1)"><path fill="none" stroke="#000000" d="M 370 448 L 888 448" stroke-miterlimit="10"/></g><g transform="translate(10,10) scale(1,1)"><path fill="#000000" stroke="none" d="M 877.8373251423759 452.209517756016 L 888 448 L 877.8373251423758 443.790482243984"/></g><g transform="translate(10,10) scale(1,1)"><path fill="none" stroke="#000000" d="M 877.8373251423759 452.209517756016 L 888 448 L 877.8373251423758 443.790482243984 L 877.8373251423759 452.209517756016" stroke-miterlimit="10"/></g><g transform="translate(10,10) scale(1,1)"><g><path fill="none" stroke="none"/><text fill="#000000" stroke="none" font-family="Arial" font-size="13px" font-style="normal" font-weight="normal" text-decoration="none" x="546.5" y="444.5">19 : add new missing person</text></g></g><g transform="translate(10,10) scale(1,1)"><rect fill="#fefe6f" stroke="none" x="888" y="448" width="13" height="28"/></g><g transform="translate(10,10) scale(1,1)"><path fill="none" stroke="#000000" d="M 888 448 L 901 448 L 901 476 L 888 476 L 888 448 Z Z" stroke-miterlimit="10"/></g><g transform="translate(10,10) scale(1,1)"><path fill="none" stroke="#000000" d="M 370 472 L 606 472" stroke-miterlimit="10"/></g><g transform="translate(10,10) scale(1,1)"><path fill="#000000" stroke="none" d="M 595.8373251423759 476.209517756016 L 606 472 L 595.8373251423758 467.790482243984"/></g><g transform="translate(10,10) scale(1,1)"><path fill="none" stroke="#000000" d="M 595.8373251423759 476.209517756016 L 606 472 L 595.8373251423758 467.790482243984 L 595.8373251423759 476.209517756016" stroke-miterlimit="10"/></g><g transform="translate(10,10) scale(1,1)"><g><path fill="none" stroke="none"/><text fill="#000000" stroke="none" font-family="Arial" font-size="13px" font-style="normal" font-weight="normal" text-decoration="none" x="413.5" y="468.5">20 : detect face in images</text></g></g><g transform="translate(10,10) scale(1,1)"><rect fill="#fefe6f" stroke="none" x="606" y="472" width="13" height="28"/></g><g transform="translate(10,10) scale(1,1)"><path fill="none" stroke="#000000" d="M 606 472 L 619 472 L 619 500 L 606 500 L 606 472 Z Z" stroke-miterlimit="10"/></g><g transform="translate(10,10) scale(1,1)"><path fill="none" stroke="#000000" d="M 619 480 L 715 480" stroke-miterlimit="10"/></g><g transform="translate(10,10) scale(1,1)"><path fill="#000000" stroke="none" d="M 704.8373251423759 484.209517756016 L 715 480 L 704.8373251423758 475.790482243984"/></g><g transform="translate(10,10) scale(1,1)"><path fill="none" stroke="#000000" d="M 704.8373251423759 484.209517756016 L 715 480 L 704.8373251423758 475.790482243984 L 704.8373251423759 484.209517756016" stroke-miterlimit="10"/></g><g transform="translate(10,10) scale(1,1)"><g><path fill="none" stroke="none"/><text fill="#000000" stroke="none" font-family="Arial" font-size="13px" font-style="normal" font-weight="normal" text-decoration="none" x="583.5" y="476.5">21 : encode detected images</text></g></g><g transform="translate(10,10) scale(1,1)"><rect fill="#fefe6f" stroke="none" x="715" y="480" width="13" height="80"/></g><g transform="translate(10,10) scale(1,1)"><path fill="none" stroke="#000000" d="M 715 480 L 728 480 L 728 560 L 715 560 L 715 480 Z Z" stroke-miterlimit="10"/></g><g transform="translate(10,10) scale(1,1)"><path fill="none" stroke="#000000" d="M 728 488 L 758 488 L 758 508 L 735 508" stroke-miterlimit="10"/></g><g transform="translate(10,10) scale(1,1)"><path fill="#000000" stroke="none" d="M 745.1626748576241 503.790482243984 L 735 508 L 745.1626748576241 512.209517756016"/></g><g transform="translate(10,10) scale(1,1)"><path fill="none" stroke="#000000" d="M 745.1626748576241 503.790482243984 L 735 508 L 745.1626748576241 512.209517756016 L 745.1626748576241 503.790482243984" stroke-miterlimit="10"/></g><g transform="translate(10,10) scale(1,1)"><g><path fill="none" stroke="none"/><text fill="#000000" stroke="none" font-family="Arial" font-size="13px" font-style="normal" font-weight="normal" text-decoration="none" x="765.5" y="508.5">22 : serialize encode images</text></g></g><g transform="translate(10,10) scale(1,1)"><rect fill="#fefe6f" stroke="none" x="722" y="508" width="13" height="28"/></g><g transform="translate(10,10) scale(1,1)"><path fill="none" stroke="#000000" d="M 722 508 L 735 508 L 735 536 L 722 536 L 722 508 Z Z" stroke-miterlimit="10"/></g><g transform="translate(10,10) scale(1,1)"><path fill="none" stroke="#000000" d="M 65 600 L 234 600" stroke-miterlimit="10"/></g><g transform="translate(10,10) scale(1,1)"><path fill="#000000" stroke="none" d="M 223.83732514237585 604.209517756016 L 234 600 L 223.83732514237585 595.790482243984"/></g><g transform="translate(10,10) scale(1,1)"><path fill="none" stroke="#000000" d="M 223.83732514237585 604.209517756016 L 234 600 L 223.83732514237585 595.790482243984 L 223.83732514237585 604.209517756016" stroke-miterlimit="10"/></g><g transform="translate(10,10) scale(1,1)"><g><path fill="none" stroke="none"/><text fill="#000000" stroke="none" font-family="Arial" font-size="13px" font-style="normal" font-weight="normal" text-decoration="none" x="86.5" y="596.5">23 : recognize person</text></g></g><g transform="translate(10,10) scale(1,1)"><rect fill="#fefe6f" stroke="none" x="234" y="600" width="13" height="32"/></g><g transform="translate(10,10) scale(1,1)"><path fill="none" stroke="#000000" d="M 234 600 L 247 600 L 247 632 L 234 632 L 234 600 Z Z" stroke-miterlimit="10"/></g><g transform="translate(10,10) scale(1,1)"><path fill="none" stroke="#000000" d="M 234 620 L 65 620" stroke-miterlimit="10" stroke-dasharray="3"/></g><g transform="translate(10,10) scale(1,1)"><path fill="none" stroke="#000000" d="M 75.16267485762415 615.790482243984 L 65 620 L 75.16267485762415 624.209517756016" stroke-miterlimit="10"/></g><g transform="translate(10,10) scale(1,1)"><g><path fill="none" stroke="none"/><text fill="#000000" stroke="none" font-family="Arial" font-size="13px" font-style="normal" font-weight="normal" text-decoration="none" x="68.5" y="636.5">24 : select add photo option</text></g></g><g transform="translate(10,10) scale(1,1)"><path fill="none" stroke="#000000" d="M 65 672 L 234 672" stroke-miterlimit="10"/></g><g transform="translate(10,10) scale(1,1)"><path fill="#000000" stroke="none" d="M 223.83732514237585 676.209517756016 L 234 672 L 223.83732514237585 667.790482243984"/></g><g transform="translate(10,10) scale(1,1)"><path fill="none" stroke="#000000" d="M 223.83732514237585 676.209517756016 L 234 672 L 223.83732514237585 667.790482243984 L 223.83732514237585 676.209517756016" stroke-miterlimit="10"/></g><g transform="translate(10,10) scale(1,1)"><g><path fill="none" stroke="none"/><text fill="#000000" stroke="none" font-family="Arial" font-size="13px" font-style="normal" font-weight="normal" text-decoration="none" x="91.5" y="668.5">25 : add via camera</text></g></g><g transform="translate(10,10) scale(1,1)"><rect fill="#fefe6f" stroke="none" x="234" y="672" width="13" height="456"/></g><g transform="translate(10,10) scale(1,1)"><path fill="none" stroke="#000000" d="M 234 672 L 247 672 L 247 1128 L 234 1128 L 234 672 Z Z" stroke-miterlimit="10"/></g><g transform="translate(10,10) scale(1,1)"><path fill="none" stroke="#000000" d="M 234 699 L 65 699" stroke-miterlimit="10" stroke-dasharray="3"/></g><g transform="translate(10,10) scale(1,1)"><path fill="none" stroke="#000000" d="M 75.16267485762415 694.790482243984 L 65 699 L 75.16267485762415 703.209517756016" stroke-miterlimit="10"/></g><g transform="translate(10,10) scale(1,1)"><g><path fill="none" stroke="none"/><text fill="#000000" stroke="none" font-family="Arial" font-size="13px" font-style="normal" font-weight="normal" text-decoration="none" x="99.5" y="715.5">26 : photo added</text></g></g><g transform="translate(10,10) scale(1,1)"><path fill="none" stroke="#000000" d="M 65 744 L 241 744" stroke-miterlimit="10"/></g><g transform="translate(10,10) scale(1,1)"><path fill="#000000" stroke="none" d="M 230.83732514237585 748.209517756016 L 241 744 L 230.83732514237585 739.790482243984"/></g><g transform="translate(10,10) scale(1,1)"><path fill="none" stroke="#000000" d="M 230.83732514237585 748.209517756016 L 241 744 L 230.83732514237585 739.790482243984 L 230.83732514237585 748.209517756016" stroke-miterlimit="10"/></g><g transform="translate(10,10) scale(1,1)"><g><path fill="none" stroke="none"/><text fill="#000000" stroke="none" font-family="Arial" font-size="13px" font-style="normal" font-weight="normal" text-decoration="none" x="75.5" y="740.5">27 : add photo from gallery</text></g></g><g transform="translate(10,10) scale(1,1)"><rect fill="#fefe6f" stroke="none" x="241" y="744" width="13" height="28"/></g><g transform="translate(10,10) scale(1,1)"><path fill="none" stroke="#000000" d="M 241 744 L 254 744 L 254 772 L 241 772 L 241 744 Z Z" stroke-miterlimit="10"/></g><g transform="translate(10,10) scale(1,1)"><path fill="none" stroke="#000000" d="M 241 764 L 65 764" stroke-miterlimit="10" stroke-dasharray="3"/></g><g transform="translate(10,10) scale(1,1)"><path fill="none" stroke="#000000" d="M 75.16267485762415 759.790482243984 L 65 764 L 75.16267485762415 768.209517756016" stroke-miterlimit="10"/></g><g transform="translate(10,10) scale(1,1)"><g><path fill="none" stroke="none"/><text fill="#000000" stroke="none" font-family="Arial" font-size="13px" font-style="normal" font-weight="normal" text-decoration="none" x="103.5" y="780.5">28 : photo added</text></g></g><g transform="translate(10,10) scale(1,1)"><path fill="none" stroke="#000000" d="M 247 797 L 357 797" stroke-miterlimit="10"/></g><g transform="translate(10,10) scale(1,1)"><path fill="#000000" stroke="none" d="M 346.83732514237585 801.209517756016 L 357 797 L 346.83732514237585 792.790482243984"/></g><g transform="translate(10,10) scale(1,1)"><path fill="none" stroke="#000000" d="M 346.83732514237585 801.209517756016 L 357 797 L 346.83732514237585 792.790482243984 L 346.83732514237585 801.209517756016" stroke-miterlimit="10"/></g><g transform="translate(10,10) scale(1,1)"><g><path fill="none" stroke="none"/><text fill="#000000" stroke="none" font-family="Arial" font-size="13px" font-style="normal" font-weight="normal" text-decoration="none" x="208.5" y="793.5">29 : request for recognize image</text></g></g><g transform="translate(10,10) scale(1,1)"><rect fill="#fefe6f" stroke="none" x="357" y="797" width="13" height="315"/></g><g transform="translate(10,10) scale(1,1)"><path fill="none" stroke="#000000" d="M 357 797 L 370 797 L 370 1112 L 357 1112 L 357 797 Z Z" stroke-miterlimit="10"/></g><g transform="translate(10,10) scale(1,1)"><path fill="none" stroke="#000000" d="M 370 800 L 606 800" stroke-miterlimit="10"/></g><g transform="translate(10,10) scale(1,1)"><path fill="#000000" stroke="none" d="M 595.8373251423759 804.209517756016 L 606 800 L 595.8373251423758 795.790482243984"/></g><g transform="translate(10,10) scale(1,1)"><path fill="none" stroke="#000000" d="M 595.8373251423759 804.209517756016 L 606 800 L 595.8373251423758 795.790482243984 L 595.8373251423759 804.209517756016" stroke-miterlimit="10"/></g><g transform="translate(10,10) scale(1,1)"><g><path fill="none" stroke="none"/><text fill="#000000" stroke="none" font-family="Arial" font-size="13px" font-style="normal" font-weight="normal" text-decoration="none" x="417.5" y="796.5">30 : detect face in image</text></g></g><g transform="translate(10,10) scale(1,1)"><rect fill="#fefe6f" stroke="none" x="606" y="800" width="13" height="28"/></g><g transform="translate(10,10) scale(1,1)"><path fill="none" stroke="#000000" d="M 606 800 L 619 800 L 619 828 L 606 828 L 606 800 Z Z" stroke-miterlimit="10"/></g><g transform="translate(10,10) scale(1,1)"><path fill="none" stroke="#000000" d="M 619 808 L 715 808" stroke-miterlimit="10"/></g><g transform="translate(10,10) scale(1,1)"><path fill="#000000" stroke="none" d="M 704.8373251423759 812.209517756016 L 715 808 L 704.8373251423758 803.790482243984"/></g><g transform="translate(10,10) scale(1,1)"><path fill="none" stroke="#000000" d="M 704.8373251423759 812.209517756016 L 715 808 L 704.8373251423758 803.790482243984 L 704.8373251423759 812.209517756016" stroke-miterlimit="10"/></g><g transform="translate(10,10) scale(1,1)"><g><path fill="none" stroke="none"/><text fill="#000000" stroke="none" font-family="Arial" font-size="13px" font-style="normal" font-weight="normal" text-decoration="none" x="611.5" y="804.5">31 : encode  image</text></g></g><g transform="translate(10,10) scale(1,1)"><rect fill="#fefe6f" stroke="none" x="715" y="808" width="13" height="28"/></g><g transform="translate(10,10) scale(1,1)"><path fill="none" stroke="#000000" d="M 715 808 L 728 808 L 728 836 L 715 836 L 715 808 Z Z" stroke-miterlimit="10"/></g><g transform="translate(10,10) scale(1,1)"><path fill="none" stroke="#000000" d="M 715 835 L 472 835" stroke-miterlimit="10"/></g><g transform="translate(10,10) scale(1,1)"><path fill="#000000" stroke="none" d="M 482.16267485762415 830.790482243984 L 472 835 L 482.16267485762415 839.209517756016"/></g><g transform="translate(10,10) scale(1,1)"><path fill="none" stroke="#000000" d="M 482.16267485762415 830.790482243984 L 472 835 L 482.16267485762415 839.209517756016 L 482.16267485762415 830.790482243984" stroke-miterlimit="10"/></g><g transform="translate(10,10) scale(1,1)"><g><path fill="none" stroke="none"/><text fill="#000000" stroke="none" font-family="Arial" font-size="13px" font-style="normal" font-weight="normal" text-decoration="none" x="504.5" y="851.5">32 : recognize encoded image</text></g></g><g transform="translate(10,10) scale(1,1)"><rect fill="#fefe6f" stroke="none" x="459" y="835" width="13" height="61"/></g><g transform="translate(10,10) scale(1,1)"><path fill="none" stroke="#000000" d="M 459 835 L 472 835 L 472 896 L 459 896 L 459 835 Z Z" stroke-miterlimit="10"/></g><g transform="translate(10,10) scale(1,1)"><path fill="none" stroke="#000000" d="M 472 880 L 502 880 L 502 900 L 472 900" stroke-miterlimit="10"/></g><g transform="translate(10,10) scale(1,1)"><path fill="#000000" stroke="none" d="M 482.16267485762415 895.790482243984 L 472 900 L 482.16267485762415 904.209517756016"/></g><g transform="translate(10,10) scale(1,1)"><path fill="none" stroke="#000000" d="M 482.16267485762415 895.790482243984 L 472 900 L 482.16267485762415 904.209517756016 L 482.16267485762415 895.790482243984" stroke-miterlimit="10"/></g><g transform="translate(10,10) scale(1,1)"><g><path fill="none" stroke="none"/><text fill="#000000" stroke="none" font-family="Arial" font-size="13px" font-style="normal" font-weight="normal" text-decoration="none" x="508.5" y="895.5">33 : load encoded data</text></g></g><g transform="translate(10,10) scale(1,1)"><rect fill="#fefe6f" stroke="none" x="459" y="900" width="13" height="220"/></g><g transform="translate(10,10) scale(1,1)"><path fill="none" stroke="#000000" d="M 459 900 L 472 900 L 472 1120 L 459 1120 L 459 900 Z Z" stroke-miterlimit="10"/></g><g transform="translate(10,10) scale(1,1)"><path fill="none" stroke="#000000" d="M 472 912 L 502 912 L 502 932 L 479 932" stroke-miterlimit="10"/></g><g transform="translate(10,10) scale(1,1)"><path fill="#000000" stroke="none" d="M 489.16267485762415 927.790482243984 L 479 932 L 489.16267485762415 936.209517756016"/></g><g transform="translate(10,10) scale(1,1)"><path fill="none" stroke="#000000" d="M 489.16267485762415 927.790482243984 L 479 932 L 489.16267485762415 936.209517756016 L 489.16267485762415 927.790482243984" stroke-miterlimit="10"/></g><g transform="translate(10,10) scale(1,1)"><g><path fill="none" stroke="none"/><text fill="#000000" stroke="none" font-family="Arial" font-size="13px" font-style="normal" font-weight="normal" text-decoration="none" x="503.5" y="927.5">34 : find matched image in encoding data</text></g></g><g transform="translate(10,10) scale(1,1)"><rect fill="#fefe6f" stroke="none" x="466" y="932" width="13" height="28"/></g><g transform="translate(10,10) scale(1,1)"><path fill="none" stroke="#000000" d="M 466 932 L 479 932 L 479 960 L 466 960 L 466 932 Z Z" stroke-miterlimit="10"/></g><g transform="translate(10,10) scale(1,1)"><path fill="none" stroke="#000000" d="M 459 968 L 370 968" stroke-miterlimit="10" stroke-dasharray="3"/></g><g transform="translate(10,10) scale(1,1)"><path fill="none" stroke="#000000" d="M 380.16267485762415 963.790482243984 L 370 968 L 380.16267485762415 972.209517756016" stroke-miterlimit="10"/></g><g transform="translate(10,10) scale(1,1)"><g><path fill="none" stroke="none"/><text fill="#000000" stroke="none" font-family="Arial" font-size="13px" font-style="normal" font-weight="normal" text-decoration="none" x="346.220458984375" y="955.5">35 : return unknown</text></g></g><g transform="translate(10,10) scale(1,1)"><path fill="none" stroke="#000000" d="M 357 992 L 247 992" stroke-miterlimit="10" stroke-dasharray="3"/></g><g transform="translate(10,10) scale(1,1)"><path fill="none" stroke="#000000" d="M 257.16267485762415 987.790482243984 L 247 992 L 257.16267485762415 996.209517756016" stroke-miterlimit="10"/></g><g transform="translate(10,10) scale(1,1)"><g><path fill="none" stroke="none"/><text fill="#000000" stroke="none" font-family="Arial" font-size="13px" font-style="normal" font-weight="normal" text-decoration="none" x="240.5" y="1008.5">36 : unknown person</text></g></g><g transform="translate(10,10) scale(1,1)"><path fill="none" stroke="#000000" d="M 234 1000 L 65 1000" stroke-miterlimit="10" stroke-dasharray="3"/></g><g transform="translate(10,10) scale(1,1)"><path fill="none" stroke="#000000" d="M 75.16267485762415 995.790482243984 L 65 1000 L 75.16267485762415 1004.209517756016" stroke-miterlimit="10"/></g><g transform="translate(10,10) scale(1,1)"><g><path fill="none" stroke="none"/><text fill="#000000" stroke="none" font-family="Arial" font-size="13px" font-style="normal" font-weight="normal" text-decoration="none" x="65.5" y="1016.5">37 : display unknown person</text></g></g><g transform="translate(10,10) scale(1,1)"><path fill="none" stroke="#000000" d="M 459 1016 L 370 1016" stroke-miterlimit="10" stroke-dasharray="3"/></g><g transform="translate(10,10) scale(1,1)"><path fill="none" stroke="#000000" d="M 380.16267485762415 1011.790482243984 L 370 1016 L 380.16267485762415 1020.209517756016" stroke-miterlimit="10"/></g><g transform="translate(10,10) scale(1,1)"><g><path fill="none" stroke="none"/><text fill="#000000" stroke="none" font-family="Arial" font-size="13px" font-style="normal" font-weight="normal" text-decoration="none" x="353.5" y="1032.5">38 : return person ID</text></g></g><g transform="translate(10,10) scale(1,1)"><path fill="none" stroke="#000000" d="M 370 1056 L 888 1056" stroke-miterlimit="10"/></g><g transform="translate(10,10) scale(1,1)"><path fill="#000000" stroke="none" d="M 877.8373251423759 1060.2095177560159 L 888 1056 L 877.8373251423758 1051.7904822439841"/></g><g transform="translate(10,10) scale(1,1)"><path fill="none" stroke="#000000" d="M 877.8373251423759 1060.2095177560159 L 888 1056 L 877.8373251423758 1051.7904822439841 L 877.8373251423759 1060.2095177560159" stroke-miterlimit="10"/></g><g transform="translate(10,10) scale(1,1)"><g><path fill="none" stroke="none"/><text fill="#000000" stroke="none" font-family="Arial" font-size="13px" font-style="normal" font-weight="normal" text-decoration="none" x="565.5" y="1052.5">39 : get ID information</text></g></g><g transform="translate(10,10) scale(1,1)"><rect fill="#fefe6f" stroke="none" x="888" y="1056" width="13" height="28"/></g><g transform="translate(10,10) scale(1,1)"><path fill="none" stroke="#000000" d="M 888 1056 L 901 1056 L 901 1084 L 888 1084 L 888 1056 Z Z" stroke-miterlimit="10"/></g><g transform="translate(10,10) scale(1,1)"><path fill="none" stroke="#000000" d="M 888 1076 L 370 1076" stroke-miterlimit="10" stroke-dasharray="3"/></g><g transform="translate(10,10) scale(1,1)"><path fill="none" stroke="#000000" d="M 380.16267485762415 1071.7904822439841 L 370 1076 L 380.16267485762415 1080.2095177560159" stroke-miterlimit="10"/></g><g transform="translate(10,10) scale(1,1)"><g><path fill="none" stroke="none"/><text fill="#000000" stroke="none" font-family="Arial" font-size="13px" font-style="normal" font-weight="normal" text-decoration="none" x="542.5" y="1092.5">40 : return person information</text></g></g><g transform="translate(10,10) scale(1,1)"><path fill="none" stroke="#000000" d="M 357 1083 L 247 1083" stroke-miterlimit="10" stroke-dasharray="3"/></g><g transform="translate(10,10) scale(1,1)"><path fill="none" stroke="#000000" d="M 257.16267485762415 1078.7904822439841 L 247 1083 L 257.16267485762415 1087.2095177560159" stroke-miterlimit="10"/></g><g transform="translate(10,10) scale(1,1)"><g><path fill="none" stroke="none"/><text fill="#000000" stroke="none" font-family="Arial" font-size="13px" font-style="normal" font-weight="normal" text-decoration="none" x="240.5" y="1099.5">41 : send information</text></g></g><g transform="translate(10,10) scale(1,1)"><path fill="none" stroke="#000000" d="M 234 1104 L 65 1104" stroke-miterlimit="10" stroke-dasharray="3"/></g><g transform="translate(10,10) scale(1,1)"><path fill="none" stroke="#000000" d="M 75.16267485762415 1099.7904822439841 L 65 1104 L 75.16267485762415 1108.2095177560159" stroke-miterlimit="10"/></g><g transform="translate(10,10) scale(1,1)"><g><path fill="none" stroke="none"/><text fill="#000000" stroke="none" font-family="Arial" font-size="13px" font-style="normal" font-weight="normal" text-decoration="none" x="59.5" y="1120.5">42 : display person information</text></g></g></g></svg>